<?xml version="1.0" standalone="no"?>
<!DOCTYPE svg PUBLIC "-//W3C//DTD SVG 20010904//EN"
 "http://www.w3.org/TR/2001/REC-SVG-20010904/DTD/svg10.dtd">
<svg version="1.0" xmlns="http://www.w3.org/2000/svg"
 width="90.000000pt" height="100.000000pt" viewBox="0 0 90.000000 100.000000"
 preserveAspectRatio="xMidYMid meet">

<g transform="translate(0.000000,100.000000) scale(0.100000,-0.100000)"
fill="#000000" stroke="none">
<path d="M135 865 l-25 -24 0 -301 0 -301 25 -24 c13 -14 33 -25 45 -25 17 0
20 -6 20 -43 0 -50 13 -67 52 -67 32 0 48 28 48 81 l0 29 155 0 155 0 0 -33
c0 -41 25 -77 54 -77 33 0 46 19 46 67 0 35 3 43 19 43 10 0 30 9 45 21 l26
20 0 309 0 309 -26 20 c-26 20 -38 21 -321 21 l-294 0 -24 -25z m470 -50 l0
-30 -144 0 c-121 0 -145 3 -154 16 -6 9 -7 24 -4 33 6 15 24 16 154 14 l148
-3 0 -30z m117 -82 c15 -14 18 -32 18 -133 0 -77 -4 -120 -12 -128 -7 -7 -42
-12 -92 -11 -65 0 -77 2 -59 11 53 26 81 154 48 219 -41 78 -155 45 -155 -45
0 -61 60 -103 110 -76 29 15 32 10 19 -29 -13 -36 -35 -51 -78 -51 -21 0 -31
-5 -31 -15 0 -11 -12 -15 -51 -15 l-52 0 27 21 c33 26 36 77 6 104 -19 17 -19
19 -3 37 21 24 21 74 0 96 -24 23 -90 22 -116 -2 -25 -23 -27 -63 -5 -87 15
-17 15 -20 -5 -45 -28 -35 -27 -69 4 -99 l24 -25 -59 0 c-85 0 -90 8 -90 142
0 90 3 115 17 130 15 17 37 18 266 18 219 0 253 -2 269 -17z m-324 -46 c6 -32
-7 -67 -26 -67 -46 0 -78 50 -50 78 19 19 72 11 76 -11z m178 15 c33 -22 45
-95 18 -106 -46 -18 -94 10 -94 54 0 41 46 72 76 52z m-198 -122 c40 -24 43
-62 8 -85 -19 -13 -29 -14 -45 -5 -40 21 -47 60 -18 98 12 16 16 15 55 -8z
m360 -248 c-2 -21 -9 -28 -30 -30 -39 -5 -56 30 -28 58 28 28 63 11 58 -28z
m-497 22 c9 -11 10 -20 2 -32 -24 -39 -82 -15 -68 28 8 24 47 27 66 4z m399 6
c0 -6 -67 -10 -180 -10 -113 0 -180 4 -180 10 0 6 67 10 180 10 113 0 180 -4
180 -10z m0 -50 c0 -6 -67 -10 -180 -10 -113 0 -180 4 -180 10 0 6 67 10 180
10 113 0 180 -4 180 -10z"/>
</g>
</svg>
